<?xml version="1.0" encoding="utf-8"?>
<!-- Generator: Adobe Illustrator 25.4.1, SVG Export Plug-In . SVG Version: 6.00 Build 0)  -->
<svg version="1.1" id="Layer_1" xmlns="http://www.w3.org/2000/svg" xmlns:xlink="http://www.w3.org/1999/xlink" x="0px" y="0px"
	 viewBox="0 0 789.1 370.3" style="enable-background:new 0 0 789.1 370.3;" xml:space="preserve">
<style type="text/css">
	.st0{fill:#93C3CF;}
	.st1{fill:#FFFFFF;}
</style>
<path class="st0" d="M59.8,356.3c35,0,70.5-8.9,105.5-26.4c35.4-17.7,71.4-44.7,106.9-80.3c36.7-36.7,74-64.6,110.8-83.1
	c37.2-18.6,74.9-28,112.2-28s75.1,9.4,112.2,28c36.8,18.4,74.1,46.4,110.8,83.1c23.1,23.1,46.4,42.6,69.6,58.2V0H0v347.8
	C19.4,353.3,39.6,356.2,59.8,356.3z"/>
<path class="st1" d="M719.4,248.6c-34.6-34.6-69.8-61.4-104.6-79.8c36.6-0.3,73.7-9.7,110.2-28c21.2-10.6,42.6-24.4,63.9-41.2
	l0.2-19.4c-23.7,19.7-47.3,35.4-70.8,47.2c-35.1,17.5-70.6,26.4-105.5,26.4c-12.6,0.1-25.2-0.7-37.7-2.4c-14.2-5-28.9-8.7-43.8-11.1
	c-3.8-0.7-7.6-1.2-11.4-1.5c-7.8-0.8-15.7-1.2-23.6-1.3c-37.3,0-75.1,9.4-112.2,28c-36.9,18.4-74.1,46.4-110.8,83.1
	c-35.6,35.6-71.5,62.6-106.9,80.3c-35.1,17.5-70.6,26.4-105.5,26.4C40.8,355.3,1,346,1,346v16c0,0,39.7,8.3,59.8,8.3
	c37.3,0,75.1-9.4,112.2-28c36.9-18.4,74.1-46.4,110.8-83.1c35.5-35.6,71.5-62.6,106.9-80.3c35.1-17.5,70.6-26.4,105.5-26.4
	s70.5,8.9,105.5,26.4c35.4,17.7,71.4,44.7,106.9,80.3c24.3,24.4,51.2,46.1,80.2,64.8v-17.2h-0.1
	C765.7,291.1,742.5,271.7,719.4,248.6z"/>
</svg>
