<?xml version="1.0" encoding="utf-8"?>
<!-- Generator: Adobe Illustrator 25.4.1, SVG Export Plug-In . SVG Version: 6.00 Build 0)  -->
<svg version="1.1" id="Layer_1" xmlns="http://www.w3.org/2000/svg" xmlns:xlink="http://www.w3.org/1999/xlink" x="0px" y="0px"
	 viewBox="0 0 788.7 480" style="enable-background:new 0 0 788.7 480;" xml:space="preserve">
<style type="text/css">
	.st0{fill:#E9F053;}
	.st1{fill:#93C3CF;}
	.st2{fill:#FFFFFF;}
</style>
<path class="st0" d="M788.6,353.7L788.6,353.7L788.6,353.7L788.6,353.7z"/>
<path class="st1" d="M788.3,374l0.2-20.3l-0.2,0.2V0H0.3v287.6l-0.4,0.2l0.6,17.3c10.1-6.6,20.5-12.6,31.3-18
	c35.1-17.5,70.6-26.4,105.5-26.4s70.5,8.9,105.5,26.4c15.2,7.7,29.9,16.5,43.8,26.5l12.7,9.3c17.8,13.7,34.6,28.6,50.5,44.5
	c36.7,36.7,74,64.6,110.8,83.1c37.2,18.6,74.9,28,112.2,28s75.1-9.4,112.2-28c13-6.6,25.6-13.9,37.7-22.1
	c15.8,11.6,32.6,21.9,50.1,30.7c5,2.5,9.9,4.8,14.9,7V455l0.3-80.9L788.3,374z"/>
<path class="st2" d="M724.8,410.6l-14.4,9.7c-10.2,6.7-20.8,12.8-31.7,18.2c-35.1,17.5-70.6,26.4-105.5,26.4s-70.5-8.9-105.5-26.4
	c-35.4-17.7-71.4-44.7-106.9-80.3c-15.1-15.2-31.2-29.5-48-42.8L300,306c-15.8-11.6-32.6-21.9-50.1-30.8
	c-37.2-18.6-74.9-28-112.2-28s-75.1,9.4-112.2,28c-8.4,4.2-16.8,8.9-25.2,14l0.6,17.3c10.1-6.6,20.5-12.6,31.3-18
	c35.1-17.5,70.6-26.4,105.5-26.4s70.5,8.9,105.5,26.4c15.2,7.7,29.9,16.5,43.8,26.4l12.7,9.3c17.8,13.7,34.6,28.6,50.5,44.5
	c36.7,36.7,74,64.6,110.8,83.1c37.2,18.6,74.9,28,112.2,28s75.1-9.4,112.2-28c13-6.6,25.6-13.9,37.7-22.1
	c15.8,11.6,32.6,21.9,50.1,30.8c5,2.5,9.9,4.8,14.9,6.9V451C753.5,433.7,724.8,410.6,724.8,410.6z"/>
</svg>
