<?xml version="1.0" encoding="utf-8"?>
<!-- Generator: Adobe Illustrator 25.4.1, SVG Export Plug-In . SVG Version: 6.00 Build 0)  -->
<svg version="1.1" id="Layer_1" xmlns="http://www.w3.org/2000/svg" xmlns:xlink="http://www.w3.org/1999/xlink" x="0px" y="0px"
	 viewBox="0 0 788.6 312.3" style="enable-background:new 0 0 788.6 312.3;" xml:space="preserve">
<style type="text/css">
	.st0{fill:#93C3CF;}
	.st1{fill:#FFFFFF;}
</style>
<path class="st0" d="M110.1,107.5c37.2-18.6,74.9-28,112.2-28s75.1,9.4,112.2,28c36.9,18.4,74.1,46.4,110.8,83.1
	c35.6,35.6,71.5,62.6,106.9,80.3c35.1,17.5,70.6,26.4,105.5,26.4s70.5-8.9,105.5-26.4c8.2-4.1,16.4-8.7,24.6-13.8V0H0v189.9
	C36.5,153.5,73.5,125.8,110.1,107.5z"/>
<path class="st1" d="M788,240.3v16.8c-8.2,5.1-16.4,9.6-24.6,13.8c-35.1,17.5-70.6,26.4-105.5,26.4s-70.5-8.9-105.6-26.4
	c-35.4-17.7-71.4-44.7-106.9-80.3c-36.7-36.7-74-64.7-110.8-83.1c-37.2-18.6-74.9-28-112.2-28s-75.1,9.4-112.2,28
	c-36.5,18.2-73.4,45.9-109.8,82v21c3.2-3.1,6.4-6.2,9.6-9.4c35.6-35.5,71.6-62.5,107-80.2c35.1-17.5,70.6-26.4,105.5-26.4
	s70.5,8.9,105.5,26.4c35.5,17.7,71.4,44.7,107,80.3c36.7,36.7,74,64.7,110.8,83.1c37.2,18.6,75,28,112.2,28s75.1-9.4,112.2-28
	c6.2-3.1,12.3-6.4,18.5-10L788,240.3z"/>
</svg>
