<?xml version="1.0" encoding="utf-8"?>
<!-- Generator: Adobe Illustrator 25.4.1, SVG Export Plug-In . SVG Version: 6.00 Build 0)  -->
<svg version="1.1" id="Layer_1" xmlns="http://www.w3.org/2000/svg" xmlns:xlink="http://www.w3.org/1999/xlink" x="0px" y="0px"
	 viewBox="0 0 292.3 115.2" style="enable-background:new 0 0 292.3 115.2;" xml:space="preserve">
<style type="text/css">
	.st0{clip-path:url(#SVGID_00000057145863760581180530000018072035476124962706_);}
	.st1{clip-path:url(#SVGID_00000057122378585667845490000007509242671047188910_);}
	.st2{fill:#ABD6DF;}
	.st3{font-family:'Baskerville';}
	.st4{font-size:23.95px;}
	.st5{fill:#FFFFFF;}
</style>
<g>
	<g>
		<g>
			<g>
				<g>
					<g>
						<defs>
							<rect id="SVGID_1_" x="-45.5" width="390.3" height="157.6"/>
						</defs>
						<clipPath id="SVGID_00000083053447438060038990000003191363262653356972_">
							<use xlink:href="#SVGID_1_"  style="overflow:visible;"/>
						</clipPath>
						<g style="clip-path:url(#SVGID_00000083053447438060038990000003191363262653356972_);">
							<g>
								<g>
									<g>
										<g>
											<g>
												<g>
													<defs>
														
															<ellipse id="SVGID_00000008120643953942726650000013038343580435405724_" cx="145.7" cy="-37.8" rx="149.5" ry="148"/>
													</defs>
													<clipPath id="SVGID_00000167361693542255487650000007340568496612625289_">
														<use xlink:href="#SVGID_00000008120643953942726650000013038343580435405724_"  style="overflow:visible;"/>
													</clipPath>
													<g style="clip-path:url(#SVGID_00000167361693542255487650000007340568496612625289_);">
														<rect x="-8.8" y="-190.8" class="st2" width="309" height="306"/>
													</g>
												</g>
											</g>
										</g>
									</g>
								</g>
							</g>
						</g>
					</g>
				</g>
			</g>
		</g>
	</g>
</g>
<text transform="matrix(0.9 0 0 1 103.6602 54.8701)" class="st3 st4">CASTIL</text>
<text transform="matrix(0.9 0 0 1 182.5669 54.8701)" class="st3 st4">L</text>
<text transform="matrix(0.9 0 0 1 196.2559 54.8701)" class="st3 st4">O</text>
<path class="st5" d="M114.2,6.9c2.2,0.4,3.4,0.8,3.4,1.5c0.2,0,0.4,0.4,0.7,1.3v0.7c0,1.7-2.3,4.5-6.9,8.6c-0.8,0.7-1.8,1.3-2.8,1.6
	h-0.2c-0.9-0.1-1.4-0.5-1.4-1.3c0-0.2,0.7-0.6,2-1.5c3.3-2.7,5.4-4.8,6.1-6.1c0.4-0.6,0.8-1.3,1-2.1V9.2c-0.7-0.1-1-0.2-1-0.3
	S115,8.9,115,9c-0.1,0-0.2,0-0.3-0.1c-2.8,0.1-6.5,1.3-11.1,3.4c-2.3,1.1-4.5,2.4-6.5,4c-1.7,1.4-3.1,3.2-4.1,5.2
	c-0.1,0.3-0.2,0.7-0.2,1c0,1.9,2.5,3.2,7.5,3.8c4.9,0.8,7.8,1.5,8.6,2.2c1.6,0.9,2.9,2.4,3.5,4.2v1.7c0,4.7-8,8.8-24.1,12.5
	l-4.1,0.8c-0.1,0-0.1,0-0.1-0.1l0,0l-0.7,0.1H83c-0.6,0-1.1-0.3-1.5-0.7v-0.2c0.3-0.3,1.6-0.7,3.9-1.2c5.1-1,10.2-2.4,15.1-4.3
	l3.7-1.8c1.8-0.8,3.4-1.9,4.7-3.3c0.8-0.7,1.3-1.7,1.5-2.7c0.1,0,0.1,0,0.1-0.1c0-2.2-1.8-3.6-5.5-4.5c-2.7-0.4-5.3-0.9-8-1.4
	c-2.8-0.8-4.6-1.9-5.3-3.2c-0.5-0.7-0.8-1.6-0.8-2.4c0-3.1,3.2-6.6,9.6-10.3c2.8-1.5,5.8-2.7,8.9-3.6C110.8,7.4,112.5,7,114.2,6.9z"
	/>
<path class="st5" d="M125.9,31.3c0.8,0.2,1.2,0.6,1.2,1.2v0.4l-2.5,4c-0.5,0.6-0.8,1.4-1,2.2v0.4l0.5,0.1h0.2c1,0,2.7-0.7,5.3-2.2
	c0.5-0.5,1.2-0.7,1.8-0.8l0.2,0.3v0.9c-0.8,1.3-2.1,2.2-3.5,2.7c-1.2,0.7-2.5,1.1-3.9,1.2c-1.3,0-2.4-0.7-3-1.8V39H121
	c-1.8,1.5-3.4,2.3-4.9,2.3h-0.4c-1,0-1.8-0.7-2.5-2.2V38c0-1.6,1.3-3.3,4-5.2c1.3-0.6,2.6-1,4-1.2h1.1c0.9,0.1,1.4,0.4,1.4,1.1v0.1
	c0,0.3-1,0.5-2.9,0.5c-2.7,1.1-4.2,2.2-4.6,3.2c-0.5,0.6-0.8,1.4-0.9,2.2c0.1,0.5,0.3,0.8,0.4,0.8h0.3c1.3-0.2,3.5-1.8,6.6-4.7
	c0.8-1,1.5-2,2-3.1C125.2,31.5,125.5,31.4,125.9,31.3z"/>
<path class="st5" d="M137.8,31.3c0.9-0.1,1.8,0.3,2.3,1v0.5c0,0.1-0.2,0.3-0.5,0.5h-0.2c-0.4,0-0.8-0.1-1.1-0.4h-1.1
	c-0.8,0.3-1.5,1-1.9,1.8c0,0.4,0.9,0.8,2.9,1.2c0.9,0.3,1.6,1.2,1.6,2.1l-0.1,0.5c2.9-1.6,4.6-2.4,5-2.4c0.1,0,0.2,0.1,0.2,0.2v0.6
	c0,0.6-1,1.4-3,2.5c-2.4,1.3-5.1,2.1-7.8,2.4l-0.2-0.1c-1,0.1-2.1,0.2-3.1,0.2c-0.8,0.1-1.6-0.2-2.1-0.8v-0.3c0-0.1,0.1-0.2,0.3-0.3
	h1.7c2.3,0.1,4.6-0.7,6.5-2.1c0.3-0.2,0.4-0.5,0.5-0.8c-1-0.4-2.1-0.7-3.1-1c-0.7-0.4-1.2-1.1-1.3-1.9c0-1.2,1-2.3,3-3.1
	C136.9,31.3,137.4,31.3,137.8,31.3z"/>
<path class="st5" d="M156.1,18h0.4c0.5,0,0.8,0.4,0.8,1.1c-1.4,2.9-3.5,7-6.4,12.5c-0.1,0.1-0.2,0.3-0.2,0.5c2-1.8,3.8-2.7,5.3-2.7
	c0.8,0,1.6,0.5,1.8,1.3v0.7c0,0.8-0.6,2-1.8,3.9c-1.1,1.3-2.1,2.7-2.9,4.3v0.1c0.1,0.3,0.4,0.4,0.7,0.4c1.3,0,3.3-1.5,5.9-4.6
	l1.2-1.1l1-0.8h0.3c0.1,0,0.3,0.2,0.4,0.6c0,1-1.5,2.9-4.5,5.8c-1.7,1.3-2.9,1.9-3.9,1.9h-0.1c-1.9,0-2.9-0.6-3.2-1.8v-0.2
	c0-1.1,1-2.9,3.1-5.4c0.7-0.9,1.3-2,1.6-3.1h-0.1c-0.8,0-2.1,0.9-3.9,2.6c-2.9,3-4.5,4.9-4.8,5.8c-0.2,0.1-0.5,0.2-0.7,0.2
	c-0.5,0-1-0.4-1.2-0.8v-0.7c1.3-1.8,2.4-3.8,3.2-5.8c1.1-2.2,2.2-4.4,3.4-6.5c2.1-4,3.5-6.6,4.3-7.8C155.9,18.1,156,18,156.1,18z"/>
<path class="st5" d="M176.2,31.3c0.8,0.2,1.2,0.6,1.2,1.2v0.4l-2.5,4c-0.5,0.6-0.8,1.4-1,2.2v0.4l0.5,0.1h0.2c1,0,2.7-0.7,5.3-2.2
	c0.5-0.5,1.2-0.7,1.8-0.8l0.2,0.3v0.9c-0.8,1.3-2,2.2-3.5,2.7c-1.2,0.7-2.5,1.1-3.9,1.2c-1.3,0-2.4-0.7-3-1.8V39h-0.2
	c-1.8,1.5-3.4,2.3-4.9,2.3H166c-1,0-1.8-0.7-2.5-2.2V38c0-1.6,1.3-3.3,4-5.2c1.3-0.6,2.6-1,4-1.2h1.1c0.9,0.1,1.4,0.4,1.4,1.1v0.1
	c0,0.3-1,0.5-2.9,0.5c-2.7,1.1-4.2,2.2-4.6,3.2c-0.5,0.6-0.8,1.4-0.9,2.2c0.1,0.5,0.2,0.8,0.4,0.8h0.3c1.3-0.2,3.5-1.8,6.6-4.7
	c0.8-1,1.5-2,2-3.1C175.5,31.5,175.9,31.4,176.2,31.3z"/>
</svg>
