<?xml version="1.0" encoding="UTF-8"?>
<svg width="1200pt" height="1200pt" version="1.1" viewBox="0 0 1200 1200" xmlns="http://www.w3.org/2000/svg">
 <g>
  <path d="m843.75 1125h-487.5c-14.918 0-29.227-5.9258-39.773-16.477-10.551-10.547-16.477-24.855-16.477-39.773v-56.25h243.75v-37.5h-243.75v-787.5h600v337.5h37.5v-393.75c-0.03125-24.855-9.918-48.684-27.492-66.258-17.574-17.574-41.402-27.461-66.258-27.492h-487.5c-24.855 0.03125-48.684 9.918-66.258 27.492-17.574 17.574-27.461 41.402-27.492 66.258v937.5c0.03125 24.855 9.918 48.684 27.492 66.258 17.574 17.574 41.402 27.461 66.258 27.492h487.5c24.855-0.03125 48.684-9.918 66.258-27.492 17.574-17.574 27.461-41.402 27.492-66.258h-37.5c0 14.918-5.9258 29.227-16.477 39.773-10.547 10.551-24.855 16.477-39.773 16.477zm-543.75-993.75c0-14.918 5.9258-29.227 16.477-39.773 10.547-10.551 24.855-16.477 39.773-16.477h487.5c14.918 0 29.227 5.9258 39.773 16.477 10.551 10.547 16.477 24.855 16.477 39.773v18.75h-600z"/>
  <path d="m581.25 1050h37.5v37.5h-37.5z"/>
  <path d="m764.06 524.12c27.207-30.812 42.211-70.512 42.188-111.62 0-4.9727-1.9766-9.7422-5.4922-13.258-3.5156-3.5156-8.2852-5.4922-13.258-5.4922h-37.5c-25.188 0.007812-50.055 5.6602-72.77 16.547-22.715 10.887-42.699 26.73-58.48 46.359v-62.906h18.75c34.797-0.042969 68.152-13.887 92.758-38.492 24.605-24.605 38.449-57.961 38.492-92.758 0-4.9727-1.9766-9.7422-5.4922-13.258-3.5156-3.5156-8.2852-5.4922-13.258-5.4922h-37.5c-46.141 0.074219-88.855 24.371-112.5 63.992-23.645-39.621-66.359-63.918-112.5-63.992h-37.5c-4.9727 0-9.7422 1.9766-13.258 5.4922-3.5156 3.5156-5.4922 8.2852-5.4922 13.258 0.042969 34.797 13.887 68.152 38.492 92.758 24.605 24.605 57.961 38.449 92.758 38.492h18.75v62.906c-15.781-19.629-35.766-35.473-58.48-46.359-22.715-10.887-47.582-16.539-72.77-16.547h-37.5c-4.9727 0-9.7422 1.9766-13.258 5.4922-3.5156 3.5156-5.4922 8.2852-5.4922 13.258 0.050781 44.738 17.844 87.633 49.48 119.27s74.531 49.43 119.27 49.48h37.5c4.9727 0 9.7422-1.9766 13.258-5.4922 3.5156-3.5156 5.4922-8.2852 5.4922-13.258 0.042969-34.797 13.887-68.152 38.492-92.758 24.605-24.605 57.961-38.449 92.758-38.492h17.418c-3.6406 25.262-14.582 48.914-31.48 68.043zm-51.562-242.87h16.875c-4.3477 21.164-15.863 40.18-32.598 53.84-16.738 13.664-37.672 21.137-59.277 21.16h-16.875c4.3477-21.164 15.863-40.18 32.598-53.84 16.738-13.664 37.672-21.137 59.277-21.16zm-150 75c-21.605-0.023438-42.539-7.4961-59.277-21.16-16.734-13.66-28.25-32.676-32.598-53.84h16.875c21.605 0.023438 42.539 7.4961 59.277 21.16 16.734 13.66 28.25 32.676 32.598 53.84zm0 187.5c-31.551-0.039062-62.035-11.426-85.891-32.078-23.852-20.656-39.477-49.199-44.027-80.422h17.418c31.551 0.039062 62.035 11.426 85.891 32.078 23.852 20.656 39.477 49.199 44.027 80.422z"/>
  <path d="m531.99 647.59 23.512-29.23h0.003906c-29.934-23.992-67.145-37.078-105.51-37.105h-37.5c-4.9727 0-9.7422 1.9766-13.258 5.4922-3.5156 3.5156-5.4922 8.2852-5.4922 13.258 0 30.145 8.0742 59.738 23.383 85.703 15.312 25.969 37.297 47.359 63.672 61.953l18.148-32.812h0.003906c-35.926-19.902-60.48-55.449-66.375-96.094h17.418c29.84-0.12891 58.805 10.059 81.992 28.836z"/>
  <path d="m1016.7 933.9c31.609-56.523 41.293-122.71 27.199-185.92-14.094-63.211-50.98-119.02-103.61-156.75-52.633-37.738-117.32-54.77-181.71-47.84-64.391 6.9336-123.97 37.34-167.36 85.418-43.395 48.074-67.555 110.45-67.875 175.21-0.31641 64.762 23.23 127.37 66.148 175.87 42.914 48.504 102.2 79.496 166.51 87.059 64.32 7.5664 129.17-8.8242 182.17-46.047l124.46 124.46c14.781 14.785 36.332 20.559 56.527 15.145 20.195-5.4102 35.969-21.184 41.379-41.379 5.4141-20.195-0.35937-41.746-15.145-56.527zm-229.16 97.352c-59.672 0-116.9-23.707-159.1-65.902-42.195-42.195-65.902-99.426-65.902-159.1s23.707-116.9 65.902-159.1c42.195-42.195 99.426-65.902 159.1-65.902s116.9 23.707 159.1 65.902c42.195 42.195 65.902 99.426 65.902 159.1-0.066406 59.652-23.789 116.85-65.973 159.03-42.18 42.184-99.375 65.906-159.03 65.973zm316.48 93.75c-5.5703-0.011719-10.914-2.2227-14.867-6.1484l-121.88-121.88c10.219-9.6562 19.652-20.109 28.219-31.258l123.36 123.36c3.9609 3.9375 6.1914 9.2852 6.1992 14.871 0.011719 5.582-2.1992 10.941-6.1484 14.891-3.9453 3.9492-9.3008 6.168-14.883 6.1641z"/>
  <path d="m787.5 618.75c-49.727 0-97.418 19.754-132.58 54.918-35.164 35.164-54.918 82.855-54.918 132.58s19.754 97.418 54.918 132.58c35.164 35.164 82.855 54.918 132.58 54.918s97.418-19.754 132.58-54.918c35.164-35.164 54.918-82.855 54.918-132.58-0.054688-49.711-19.828-97.371-54.977-132.52-35.152-35.148-82.812-54.922-132.52-54.977zm0 337.5c-39.781 0-77.938-15.805-106.07-43.934s-43.934-66.285-43.934-106.07 15.805-77.938 43.934-106.07 66.285-43.934 106.07-43.934 77.938 15.805 106.07 43.934 43.934 66.285 43.934 106.07c-0.042969 39.77-15.863 77.895-43.984 106.02s-66.246 43.941-106.02 43.984z"/>
  <path d="m675 806.25h37.5c0-19.891 7.9023-38.969 21.969-53.031 14.062-14.066 33.141-21.969 53.031-21.969v-37.5c-29.828 0.03125-58.426 11.891-79.516 32.984-21.094 21.09-32.953 49.688-32.984 79.516z"/>
 </g>
</svg>
