<?xml version="1.0" encoding="UTF-8"?>
<svg width="1200pt" height="1200pt" version="1.1" viewBox="0 0 1200 1200" xmlns="http://www.w3.org/2000/svg">
 <path d="m1069.9 110.88h-53.762v-50.879c0-4.7734-1.8984-9.3516-5.2734-12.727-3.375-3.3789-7.9531-5.2734-12.727-5.2734h-423.24c-4.7773 0-9.3555 1.8945-12.73 5.2734-3.375 3.375-5.2695 7.9531-5.2695 12.727v50.879h-53.762c-18.621 0.03125-36.469 7.4336-49.648 20.59-13.176 13.156-20.609 30.992-20.672 49.609v75.602c-67.918-7.4414-151.2 7.3203-249.24 43.32-4.5664 1.6797-8.25 5.1445-10.203 9.6016-1.8633 4.4492-1.8633 9.4648 0 13.918l24 60-49.922 76.32h0.003907c-2.2695 3.5625-3.207 7.8125-2.6406 12l7.3203 48-89.039 129.36c-2.2539 3.1875-3.4023 7.0234-3.2734 10.922 0.12891 3.8984 1.5312 7.6484 3.9922 10.68l46.559 57.719c2.7812 3.543 6.7891 5.9141 11.23 6.6484 4.4453 0.73438 9-0.22656 12.77-2.6875l64.801-40.559c22.098 1.957 44.34-1.5039 64.801-10.082 4.5586 28.801 1.0781 87.121-76.32 150.96-45.121 36.84-67.68 75.48-67.68 115.2-0.003906 19.871 5.7031 39.32 16.441 56.039-13.867 6.2344-25.633 16.352-33.875 29.129-8.2422 12.777-12.605 27.668-12.566 42.871v63.961c0 4.7734 1.8945 9.3516 5.2734 12.727 3.375 3.3789 7.9531 5.2734 12.727 5.2734h961.92c18.586-0.0625 36.391-7.4844 49.523-20.637 13.133-13.156 20.523-30.977 20.555-49.562v-906.72c-0.03125-18.586-7.4219-36.406-20.555-49.559-13.133-13.156-30.938-20.574-49.523-20.641zm-477-32.879h387.24v102h-387.24zm-382.8 782.52c103.68-85.559 94.68-167.28 85.559-199.2 14.715-12.93 25.801-29.477 32.16-48 1.6836-6.0547 0.082031-12.551-4.2188-17.133-4.3008-4.5859-10.68-6.5938-16.832-5.2969-6.1484 1.293-11.18 5.7031-13.27 11.629-0.83984 2.5195-20.762 61.441-97.32 53.281-4.1875-0.57812-8.4414 0.35938-12 2.6406l-55.801 35.039-28.078-34.801 85.441-122.4c2.6406-3.7695 3.7148-8.4141 3-12.961l-7.3203-48.84 51.117-78.48c3.2344-4.9141 3.8594-11.098 1.6797-16.559l-20.762-51.84c147.24-51.602 258.48-48 322.2 9.2383 72 64.922 85.801 199.68 40.441 380.52h-39.602 0.003906c-4.6914 0-9.1992 1.8281-12.562 5.1016-3.3594 3.2734-5.3125 7.7305-5.4375 12.418-4.0781 150.96 10.68 225.24 26.039 261.96h-369c-12.184-13.395-19.129-30.738-19.559-48.84 0-28.68 18.359-57.84 54.121-87.48zm410.4 261.48h-494.88v-46.559c0.03125-11.238 4.5-22.008 12.434-29.961 7.9336-7.957 18.691-12.457 29.926-12.52h409.92c11.277 0 22.094 4.4727 30.078 12.434 7.9844 7.9648 12.488 18.77 12.52 30.047zm483.48-34.199c-0.03125 9.0586-3.6445 17.742-10.051 24.148s-15.09 10.02-24.148 10.051h-413.28v-46.559c-0.023437-19.5-7.2969-38.293-20.402-52.73-13.109-14.438-31.113-23.484-50.516-25.391-7.9219-10.68-34.801-60.961-31.441-243.84h36c3.9688 0.023437 7.8281-1.2695 10.98-3.6836 3.1484-2.4102 5.4062-5.8008 6.418-9.6367 53.879-204 37.441-352.8-48-429.84-25.84-23.211-57.129-39.516-90.957-47.398v-81.844c0.03125-9.0781 3.6602-17.777 10.094-24.188 6.4336-6.4102 15.145-10.012 24.227-10.012h53.762v50.879l-0.003906 0.003907c0 4.7734 1.8984 9.3516 5.2734 12.727s7.9531 5.2734 12.727 5.2734h423.48c4.7734 0 9.3516-1.8984 12.727-5.2734s5.2734-7.9531 5.2734-12.727v-50.883h53.762c9.0391 0.0625 17.688 3.6914 24.07 10.094 6.3789 6.4062 9.9766 15.066 10.008 24.105zm-392.28-384c0-4.7734 1.8984-9.3516 5.2734-12.73 3.375-3.375 7.9531-5.2695 12.727-5.2695h223.68c6.4336 0 12.375 3.4297 15.59 9 3.2148 5.5703 3.2148 12.43 0 18-3.2148 5.5703-9.1562 9-15.59 9h-223.56c-4.8164 0-9.4297-1.9297-12.812-5.3594-3.3828-3.4258-5.25-8.0664-5.1875-12.883zm349.92 141.24c0 4.7734-1.8984 9.3516-5.2734 12.73-3.375 3.375-7.9531 5.2695-12.727 5.2695h-311.64c-6.4297 0-12.375-3.4297-15.59-9-3.2148-5.5664-3.2148-12.43 0-18 3.2148-5.5664 9.1602-9 15.59-9h312c4.7109 0.09375 9.1992 2.0312 12.496 5.3984s5.1445 7.8906 5.1445 12.602zm0 141.6c0 4.7734-1.8984 9.3516-5.2734 12.727s-7.9531 5.2734-12.727 5.2734h-311.64c-6.4297 0-12.375-3.4297-15.59-9s-3.2148-12.43 0-18 9.1602-9 15.59-9h312c4.7109 0.09375 9.1992 2.0312 12.496 5.3984 3.2969 3.3633 5.1445 7.8906 5.1445 12.602zm-17.641-700.68h-314.16c-4.7734 0-9.3516 1.8945-12.727 5.2695-3.375 3.3789-5.2734 7.957-5.2734 12.73v272.04c0 4.7734 1.8984 9.3516 5.2734 12.727 3.375 3.3789 7.9531 5.2734 12.727 5.2734h314.16c4.7734 0 9.3516-1.8945 12.727-5.2734 3.3789-3.375 5.2734-7.9531 5.2734-12.727v-272.04c0-4.7734-1.8945-9.3516-5.2734-12.73-3.375-3.375-7.9531-5.2695-12.727-5.2695zm-18 271.44-278.16-0.003906v-235.44h277.8z"/>
</svg>
