<?xml version="1.0" encoding="UTF-8"?>
<svg width="1200pt" height="1200pt" version="1.1" viewBox="0 0 1200 1200" xmlns="http://www.w3.org/2000/svg">
 <g>
  <path d="m1143.8 1143.8h37.5v37.5h-37.5z"/>
  <path d="m18.75 1143.8h37.5v37.5h-37.5z"/>
  <path d="m1068.8 825c-36.711 0-69.898 15.188-93.75 39.582v-58.332c31.012 0 56.25-25.238 56.25-56.25v-52.332c0-12.75 6.0391-24.242 16.164-30.75 48.578-31.238 77.586-84.301 77.586-141.92 0-48-20.551-93.883-56.363-125.89-35.793-31.988-83.906-47.176-131.98-41.758-75.957 8.5859-138.09 69.805-147.75 145.55-8.3828 65.793 20.961 128.74 76.574 164.27 9.7109 6.207 15.75 18.188 15.75 31.258v51.562c0 31.012 25.238 56.25 56.25 56.25v189.58c-23.832-24.395-57.02-39.582-93.73-39.582h-112.5v18.75c0 72.355 58.875 131.25 131.25 131.25h75v37.5h-318.75v-187.5h56.25c51.695 0 93.75-42.055 93.75-93.75v-18.75h-93.75c-21.188 0-40.539 7.332-56.25 19.238v-56.738h56.25c72.375 0 131.25-58.895 131.25-131.25v-18.75h-93.75c-36.711 0-69.898 15.188-93.75 39.582v-77.082c51.695 0 93.75-42.055 93.75-93.75v-47.438c0-22.633 10.555-44.156 28.949-59.043 53.102-42.957 83.551-106.65 83.551-174.77 0-63.938-27.336-125.08-75.039-167.74-47.645-42.602-111.7-62.926-175.8-55.82-98.719 11.023-181.31 90.039-196.41 187.89-12.395 80.27 17.457 158.64 79.836 209.66 18.996 15.543 29.91 37.367 29.91 59.906v47.344c0 51.695 42.055 93.75 93.75 93.75v94.238c-15.711-11.906-35.062-19.238-56.25-19.238h-93.75v18.75c0 51.695 42.055 93.75 93.75 93.75h56.25v206.74c-15.711-11.906-35.062-19.238-56.25-19.238h-93.75v18.75c0 51.695 42.055 93.75 93.75 93.75h56.25v37.5h-318.75v-168.75h75c72.375 0 131.25-58.895 131.25-131.25v-18.75h-112.5c-36.711 0-69.898 15.188-93.75 39.582v-58.332c31.012 0 56.25-25.238 56.25-56.25v-52.332c0-12.75 6.0391-24.242 16.164-30.75 48.578-31.238 77.586-84.301 77.586-141.92 0-48-20.551-93.883-56.363-125.89-35.793-31.988-83.926-47.176-131.98-41.758-75.957 8.5859-138.09 69.805-147.75 145.55-8.3828 65.793 20.961 128.74 76.574 164.27 9.7305 6.207 15.77 18.188 15.77 31.258v51.562c0 31.012 25.238 56.25 56.25 56.25v189.58c-23.852-24.395-57.039-39.582-93.75-39.582h-112.5v18.75c0 72.355 58.875 131.25 131.25 131.25h75v37.5h-131.25v37.5h1012.5v-37.5h-131.25v-168.75h75c72.375 0 131.25-58.895 131.25-131.25v-18.75zm-183.07-189.43c-43.273-27.637-66.094-76.648-59.57-127.91 7.5-58.82 55.762-106.37 114.75-113.04 5.2305-0.58203 10.406-0.86328 15.562-0.86328 32.344 0 62.867 11.57 87.227 33.336 27.863 24.883 43.855 60.582 43.855 97.914 0 44.812-22.574 86.082-60.375 110.4-19.82 12.73-31.93 34.367-33.148 58.352h-18.977v-115.95c21.77-7.7617 37.5-28.387 37.5-52.801 0-31.012-25.238-56.25-56.25-56.25s-56.25 25.238-56.25 56.25c0 24.414 15.73 45.039 37.5 52.801v115.95h-19.031c-1.3867-24.207-13.332-45.73-32.793-58.18zm51.824-110.57c0-10.332 8.418-18.75 18.75-18.75s18.75 8.418 18.75 18.75-8.418 18.75-18.75 18.75-18.75-8.418-18.75-18.75zm-18.75 225v-18.75h75v18.75c0 10.352-8.418 18.75-18.75 18.75h-37.5c-10.332 0-18.75-8.3984-18.75-18.75zm-56.25 318.75c-45.281 0-83.156-32.27-91.855-75h73.105c45.281 0 83.156 32.27 91.855 75zm-187.5-187.5h53.043c-7.7422 21.824-28.594 37.5-53.043 37.5h-53.043c7.7422-21.824 28.594-37.5 53.043-37.5zm37.5-187.5h54.355c-8.6992 42.73-46.594 75-91.855 75h-54.355c8.6992-42.73 46.574-75 91.855-75zm-231.17-305.02c-51.992-42.523-76.855-107.93-66.523-174.94 12.562-81.395 81.32-147.15 163.5-156.34 7.3516-0.80469 14.664-1.2188 21.898-1.2188 46.258 0 89.887 16.574 124.73 47.719 39.766 35.566 62.566 86.508 62.566 139.8 0 56.738-25.387 109.82-69.617 145.61-24.883 20.117-39.918 48.695-42.375 79.387h-36.711l11.25-168.75h24.953c31.012 0 56.25-25.238 56.25-56.25s-25.238-56.25-56.25-56.25h-2.418c-29.492 0-54.148 23.062-56.117 52.52l-1.5039 22.48h-29.926l-1.5-22.5c-1.9688-29.438-26.625-52.5-56.117-52.5h-2.418c-31.012 0-56.25 25.238-56.25 56.25s25.238 56.25 56.25 56.25h24.957l11.25 168.75h-36.73c-2.5312-30.562-17.832-59.344-43.145-80.023zm117.45 80.023-11.25-168.75h24.918l-11.25 168.75zm53.758-206.25 1.332-19.988c0.65234-9.8242 8.8867-17.512 18.711-17.512h2.418c10.332 0 18.75 8.418 18.75 18.75s-8.418 18.75-18.75 18.75zm-105.08 0h-22.461c-10.332 0-18.75-8.418-18.75-18.75s8.418-18.75 18.75-18.75h2.418c9.8242 0 18.055 7.6875 18.711 17.512zm-22.461 262.5v-18.75h150v18.75c0 31.012-25.238 56.25-56.25 56.25h-37.5c-31.012 0-56.25-25.238-56.25-56.25zm0 243.75c-24.449 0-45.301-15.676-53.043-37.5h53.043c24.449 0 45.301 15.676 53.043 37.5zm0 300c-24.449 0-45.301-15.676-53.043-37.5h53.043c24.449 0 45.301 15.676 53.043 37.5zm-168.75-206.25h73.105c-8.6992 42.73-46.594 75-91.855 75h-73.105c8.6992-42.73 46.574-75 91.855-75zm-183.07-226.93c-43.273-27.637-66.094-76.648-59.57-127.91 7.5-58.82 55.762-106.37 114.75-113.04 5.2305-0.58203 10.406-0.86328 15.562-0.86328 32.344 0 62.867 11.57 87.227 33.336 27.863 24.883 43.855 60.582 43.855 97.914 0 44.812-22.574 86.082-60.375 110.4-19.82 12.73-31.93 34.367-33.148 58.352h-18.977v-115.95c21.77-7.7617 37.5-28.387 37.5-52.801 0-31.012-25.238-56.25-56.25-56.25s-56.25 25.238-56.25 56.25c0 24.414 15.73 45.039 37.5 52.801v115.95h-19.031c-1.3867-24.207-13.332-45.73-32.793-58.18zm51.824-110.57c0-10.332 8.418-18.75 18.75-18.75s18.75 8.418 18.75 18.75-8.418 18.75-18.75 18.75-18.75-8.418-18.75-18.75zm-18.75 225v-18.75h75v18.75c0 10.352-8.418 18.75-18.75 18.75h-37.5c-10.332 0-18.75-8.3984-18.75-18.75zm-56.25 318.75c-45.281 0-83.156-32.27-91.855-75h73.105c45.281 0 83.156 32.27 91.855 75zm900-131.25h-73.105c8.6992-42.73 46.594-75 91.855-75h73.105c-8.6992 42.73-46.574 75-91.855 75z"/>
 </g>
</svg>
