<?xml version="1.0" encoding="UTF-8"?>
<svg width="1200pt" height="1200pt" version="1.1" viewBox="0 0 1200 1200" xmlns="http://www.w3.org/2000/svg">
 <g>
  <path d="m918.75 900c31.012 0 56.25-25.238 56.25-56.25s-25.238-56.25-56.25-56.25-56.25 25.238-56.25 56.25 25.238 56.25 56.25 56.25zm0-75c10.332 0 18.75 8.3984 18.75 18.75s-8.418 18.75-18.75 18.75-18.75-8.3984-18.75-18.75 8.418-18.75 18.75-18.75z"/>
  <path d="m1109.2 764.59c-5.6797-13.613-2.6641-29.082 7.668-39.43l27.281-27.301-79.574-79.574-27.32 27.301c-10.332 10.352-25.82 13.352-40.145 7.3516-13.461-5.5508-22.16-18.566-22.16-33.152v-38.531h-38.457c-1.707-30.242-7.3125-59.477-16.613-87.168l216.98-216.98c28.594-28.594 44.344-66.598 44.344-107.02 0-83.438-67.895-151.33-151.33-151.33-40.426 0-78.43 15.75-107.01 44.324l-216.75 216.77c-28.031-9.4141-57.75-14.887-88.445-16.52-25.871-45.207-74.488-75.824-130.21-75.824-14.27 0-28.031 2.1367-41.137 5.8672-32.363-60.844-95.23-99.617-165.11-99.617-103.39 0-187.5 84.113-187.5 187.5 0 14.363 1.7617 28.5 4.9688 42.336-46.219 13.988-79.969 56.945-79.969 107.66 0 62.043 50.457 112.5 112.5 112.5h136.01c-3.1133 18.543-4.7617 37.367-4.7617 56.25 0 41.27 7.6328 74.852 19.949 103.54l-167.27 167.29-93.074 241.98c-2.2305 5.7734-3.3555 11.852-3.3555 18.055 0 27.789 22.613 50.383 50.383 50.383 6.207 0 12.281-1.1445 18.074-3.3555l241.99-93.074 122.3-122.32c-0.91797 4.0273-1.5 8.1914-1.5 12.504 0 14.457 5.6445 27.523 14.625 37.5-9 9.9766-14.625 23.043-14.625 37.5 0 26.062 17.906 47.852 42 54.188 15.977 45.75 58.762 77.062 108 77.062s92.023-31.312 108-77.062c24.094-6.3359 42-28.125 42-54.188 0-1.4062-0.32031-2.7188-0.41406-4.0859l23.289 23.289 27.32-27.301c10.332-10.352 25.762-13.367 40.125-7.3867 13.461 5.6016 22.18 18.617 22.18 33.203v38.531h112.5v-38.531c0-14.586 8.7188-27.617 22.914-33.488 13.613-5.6641 29.082-2.6797 39.414 7.668l27.301 27.301 79.574-79.574-27.281-27.301c-10.332-10.352-13.352-25.82-7.3672-40.145 5.5625-13.461 18.578-22.18 33.164-22.18h38.531v-112.5h-38.531c-14.586 0-27.602-8.7188-33.469-22.914zm-280.95 55.277c20.457-19.969 40.949-40.367 58.633-63.957 10.199-3.7109 20.809-5.9062 31.816-5.9062 51.695 0 93.75 42.055 93.75 93.75s-42.055 93.75-93.75 93.75-93.75-42.055-93.75-93.75c0-8.1172 1.2578-16.105 3.3008-23.887zm22.52-444.15 86.68-86.699 67.238 67.238-100.14 100.14c-14.043-29.477-32.195-56.59-53.773-80.684zm19.441-206.96 29.738-29.738 160.99 160.99-29.738 29.738zm159.66-112.5c62.758 0 113.83 51.074 113.83 113.83 0 30.395-11.832 58.988-33.336 80.492l-22.914 22.914-160.99-160.99 22.914-22.914c21.504-21.484 50.082-33.336 80.492-33.336zm-186.17 139.01 67.238 67.238-86.645 86.645c-24.074-21.602-51.168-39.77-80.645-53.832zm56.25 404.74c0 97.555-49.125 145.48-101.14 196.2-35.812 34.93-72.602 71.043-94.012 123.68-3.582-0.73047-7.2969-1.125-11.102-1.125h-75v-93.75c0-31.012-25.238-56.25-56.25-56.25h-37.5c-10.332 0-18.75-8.3984-18.75-18.75s8.418-18.75 18.75-18.75h187.5c31.012 0 56.25-25.238 56.25-56.25s-25.238-56.25-56.25-56.25h-150c-10.332 0-18.75-8.3984-18.75-18.75v-56.25h93.75c51.695 0 93.75-42.055 93.75-93.75s-42.055-93.75-93.75-93.75c-0.52344 0-1.0117 0.14844-1.5391 0.14844 0.80859-6.2617 1.5391-12.523 1.5391-18.898 0-12.262-1.6484-24.133-4.4258-35.551 149.48 16.652 266.93 144.94 266.93 298.05zm-412.5 375c0-10.352 8.418-18.75 18.75-18.75h187.5c10.332 0 18.75 8.3984 18.75 18.75s-8.418 18.75-18.75 18.75h-187.5c-10.332 0-18.75-8.3984-18.75-18.75zm-235.99 0 137.83-137.83c23.062 22.875 44.477 46.012 60.262 74.195l-130.86 130.88zm-195.26-543.75c0-41.363 33.637-75 75-75s75 33.637 75 75h37.5c0-60.414-47.906-109.73-107.7-112.26-3.1875-12.262-4.8008-24.918-4.8008-37.742 0-82.707 67.293-150 150-150 54.844 0 104.34 29.812 130.67 76.895-39.977 23.457-68.211 64.762-73.48 112.97-32.738 8.0625-57.188 37.441-57.188 72.637h37.5c0-20.68 16.82-37.5 37.5-37.5s37.5 16.82 37.5 37.5h37.5c0-34.406-23.398-63.148-55.031-71.961 7.6875-54.602 54.582-96.789 111.28-96.789 62.043 0 112.5 50.457 112.5 112.5 0 9.8633-1.6133 19.52-4.125 28.93-30.75 15.395-52.125 46.895-52.125 83.57h37.5c0-31.012 25.238-56.25 56.25-56.25s56.25 25.238 56.25 56.25-25.238 56.25-56.25 56.25h-506.25c-41.363 0-75-33.637-75-75zm450 112.5v56.25c0 31.012 25.238 56.25 56.25 56.25h150c10.332 0 18.75 8.3984 18.75 18.75s-8.418 18.75-18.75 18.75h-187.5c-31.012 0-56.25 25.238-56.25 56.25s25.238 56.25 56.25 56.25h37.5c10.332 0 18.75 8.3984 18.75 18.75v93.75h-75c-3.8047 0-7.5195 0.39453-11.102 1.125-21.414-52.633-58.199-88.742-94.012-123.68-52.012-50.719-101.14-98.645-101.14-196.2 0-18.957 2.2695-37.742 5.7734-56.25zm-143.68 267.17-137.57 137.57-67.238-67.238 143.06-143.06c17.605 27.637 39.434 50.699 61.746 72.73zm-224.18 103.99 146.7 146.7-124.2 47.773-70.273-70.273zm-64.633 227.98c-8.1172 3.1523-17.512-3.3164-17.512-12.02 0-1.5938 0.30078-3.1484 0.84375-4.6133l18.789-48.863 46.707 46.707zm526.24 0.86328c-27.695 0-52.387-14.738-66.074-37.5h132.15c-13.688 22.762-38.379 37.5-66.074 37.5zm93.75-75h-187.5c-10.332 0-18.75-8.3984-18.75-18.75s8.418-18.75 18.75-18.75h187.5c10.332 0 18.75 8.3984 18.75 18.75s-8.418 18.75-18.75 18.75zm450-206.25h-1.0312c-29.832 0-56.457 17.812-68.082 45.977-11.551 27.695-5.3633 59.23 15.75 80.363l0.78906 0.78906-26.551 26.551-0.78906-0.78906c-21.148-21.148-52.727-27.355-80.98-15.508-27.543 11.398-45.355 38.004-45.355 67.836v1.0312h-37.5v-1.0312c0-29.832-17.812-56.457-45.977-68.102-27.73-11.57-59.27-5.3633-80.383 15.77l-0.78906 0.78906-25.406-25.406c1.5039-5.043 2.5547-10.258 2.5547-15.77 0-13.312-4.8359-25.387-12.602-35.043 11.664-31.48 29.945-56.664 51.227-79.914 8.0625 64.688 63.281 114.96 130.12 114.96 72.375 0 131.25-58.895 131.25-131.25s-58.875-131.25-131.25-131.25c-1.8359 0-3.6172 0.1875-5.4375 0.26172 12.695-26.344 21.414-56.887 23.605-94.012h0.58203v1.0312c0 29.832 17.812 56.477 45.957 68.082 27.676 11.586 59.25 5.3984 80.383-15.75l0.78906-0.78906 26.551 26.551-0.78906 0.78906c-21.113 21.133-27.301 52.688-15.508 80.961 11.383 27.562 38.008 45.375 67.836 45.375h1.0312z"/>
 </g>
</svg>
