<?xml version="1.0" encoding="UTF-8"?>
<svg width="1200pt" height="1200pt" version="1.1" viewBox="0 0 1200 1200" xmlns="http://www.w3.org/2000/svg">
 <g>
  <path d="m454.61 433.84c22.027-0.023438 43.145-8.7852 58.719-24.359s24.336-36.688 24.359-58.715c0.042969-5.5352-2.125-10.859-6.0273-14.789-3.8984-3.9297-9.2031-6.1367-14.742-6.1367-5.5352 0-10.84 2.207-14.742 6.1367-3.8984 3.9297-6.0664 9.2539-6.0234 14.789-0.082031 14.789-8.0156 28.418-20.836 35.789-12.82 7.3711-28.59 7.3711-41.41 0-12.82-7.3711-20.754-21-20.832-35.789 0-7.4219-3.9609-14.277-10.387-17.988-6.4258-3.707-14.344-3.707-20.77 0-6.4258 3.7109-10.383 10.566-10.383 17.988 0.023438 22.027 8.7852 43.141 24.359 58.715 15.574 15.574 36.691 24.336 58.715 24.359z"/>
  <path d="m973.84 350.77h-20.766v-145.38c0-22.262-11.875-42.832-31.156-53.961-19.277-11.133-43.027-11.133-62.305 0-19.281 11.129-31.156 31.699-31.156 53.961v685.38h-332.3v-45.371c19.938-6.9414 34.961-23.57 39.852-44.109 4.8906-20.539-1.0273-42.156-15.699-57.336 29.523-15.398 54.383-38.43 71.98-66.699 17.598-28.27 27.293-60.738 28.078-94.031 0.027343-0.14062 0.015624-0.27344 0.039062-0.41406 0.023438-1.2188 0.35938-2.3555 0.35938-3.582v0.003907c-0.097656-0.65625-0.22656-1.3086-0.39062-1.9531-0.13672-1.3945-0.41406-2.7695-0.83203-4.1055-0.375-1.2617-0.875-2.4805-1.4922-3.6406-0.60938-1.1172-1.3203-2.1758-2.1289-3.1562-0.89844-1.1172-1.9141-2.1367-3.0273-3.0391-0.51562-0.42188-0.8125-1.0039-1.3789-1.3828l-67.539-45.027h97.559l0.003906-0.003906c3.0195-0.03125 6-0.73438 8.7188-2.0547 0.18359-0.085938 0.38672-0.042969 0.57031-0.13281 0.82422-0.55078 1.6055-1.1602 2.3359-1.8281 1.2734-0.78516 2.457-1.7109 3.5312-2.7578 0.82813-1 1.5547-2.082 2.1719-3.2227 0.77344-1.0977 1.4336-2.2734 1.9766-3.5039 0.43359-1.3828 0.72266-2.8125 0.85547-4.2578 0.28125-0.98437 0.48438-1.9961 0.60938-3.0117 0-0.23047-0.12109-0.42188-0.13281-0.64844v-0.003906c-0.45703-2.7109-1.0859-5.3906-1.8906-8.0195-0.089844-0.19922-0.070312-0.42188-0.16797-0.62109l-26.527-53.016h49.488c5.0312-0.003906 9.8906-1.8398 13.676-5.1562 3.7852-3.3203 6.2344-7.8984 6.8984-12.891 0.66016-4.9883-0.50781-10.051-3.2969-14.242l-79.586-119.38v-58.117c34.516-4.9375 66.102-22.133 88.98-48.441 22.883-26.309 35.531-59.973 35.637-94.84 0-5.5078-2.1836-10.793-6.082-14.691-3.8945-3.8984-9.1797-6.0859-14.691-6.082h-456.92c-38.543 0.046875-75.496 15.379-102.75 42.633-27.254 27.254-42.586 64.207-42.633 102.75v166.15c0.0625 18.367 8.2773 35.758 22.426 47.473-17.316 18.348-25.254 43.633-21.523 68.59 3.7266 24.953 18.707 46.816 40.633 59.301v489.25c0.027344 27.531 10.977 53.93 30.445 73.398 19.469 19.473 45.871 30.418 73.402 30.445h540c71.586-0.082031 140.21-28.555 190.83-79.172 50.617-50.617 79.09-119.25 79.172-190.83v-415.39c-0.027344-27.531-10.977-53.93-30.445-73.398-19.469-19.465-45.867-30.418-73.402-30.445zm-498.46 456.92c-5.5117 0-10.793-2.1875-14.688-6.082s-6.0859-9.1797-6.0859-14.688 2.1914-10.789 6.0859-14.684c3.8945-3.8984 9.1758-6.0859 14.688-6.0859 5.5078 0 10.789 2.1875 14.684 6.0859 3.8945 3.8945 6.0859 9.1758 6.0859 14.684-0.011719 5.5078-2.2031 10.781-6.0977 14.676-3.8906 3.8945-9.168 6.0859-14.672 6.0938zm-311.54-602.3c0.03125-27.535 10.98-53.934 30.449-73.402s45.867-30.418 73.398-30.445h434.09c-4.8242 23.438-17.582 44.496-36.121 59.629-18.539 15.133-41.727 23.414-65.656 23.445h-249.23c-5.5078 0-10.793 2.1875-14.688 6.082-3.8984 3.8945-6.0859 9.1797-6.082 14.691v41.539-0.003906c-0.046875 38.547-15.379 75.496-42.633 102.75-27.254 27.254-64.207 42.586-102.75 42.633-5.5039-0.007813-10.781-2.1992-14.676-6.0938-3.8945-3.8906-6.0859-9.1719-6.0938-14.676zm0 270c0.011719-11.016 4.3906-21.574 12.18-29.363 7.7891-7.7891 18.348-12.168 29.363-12.18 3.6641-0.089844 7.2344-1.1758 10.332-3.1406 43.484-7.3164 82.98-29.777 111.5-63.41 28.516-33.637 44.215-76.273 44.32-120.37v-20.766h207.69v62.309-0.003906c0.09375 0.625 0.21875 1.2422 0.375 1.8555 0.29297 2.7773 1.1094 5.4727 2.4102 7.9453 0.30078 0.55859 0.34375 1.1836 0.70312 1.7227l61.539 92.324h-44.258c-0.22656 0-0.41406 0.12109-0.64062 0.12891-1.5352 0.13281-3.0469 0.4375-4.5117 0.91016-1.1719 0.21094-2.3242 0.52344-3.4414 0.92969-0.23828 0.10938-0.5 0.082031-0.73828 0.19922h0.003906c-0.99219 0.64063-1.9219 1.3672-2.7852 2.1758-1.0586 0.67969-2.0508 1.4531-2.9688 2.3164-1 1.168-1.8594 2.4453-2.5625 3.8086-0.625 0.91406-1.168 1.8789-1.6328 2.8867-0.53906 1.6172-0.87891 3.3008-1.0039 5.0039-0.21484 0.78906-0.37891 1.5977-0.48828 2.4102 0 0.18359 0.097656 0.33594 0.10547 0.51953 0.44531 2.7266 1.0664 5.418 1.8594 8.0625 0.10156 0.22266 0.074219 0.46484 0.18359 0.68359l26.539 53.039-132.53 0.003907c-5.9844 0-11.68 2.5781-15.621 7.0781-3.9453 4.5-5.7578 10.484-4.9688 16.414 0.78516 5.9336 4.0898 11.238 9.0664 14.559l114.32 76.207c-2.5664 36.566-18.875 70.809-45.648 95.844-26.773 25.039-62.027 39.016-98.688 39.125h-228.46v-166.15h20.77c7.418 0 14.273-3.957 17.984-10.383s3.7109-14.344 0-20.77c-3.7109-6.4258-10.566-10.387-17.984-10.387h-20.77c-11.016-0.011719-21.574-4.3906-29.363-12.176-7.7852-7.7891-12.168-18.348-12.18-29.359zm249.23 290.77v41.539l-207.69-0.003906v-41.535zm623.08 103.84c-0.078125 60.57-24.172 118.64-67 161.46s-100.89 66.922-161.46 66.996h-540c-16.52-0.015626-32.355-6.5859-44.039-18.27-11.68-11.68-18.25-27.516-18.266-44.035v-186.93h207.69v41.539h-103.85c-7.3828 0.054688-14.18 4.0273-17.855 10.43-3.6758 6.4023-3.6758 14.277 0 20.68s10.473 10.371 17.855 10.43h540c5.5078 0 10.793-2.1875 14.688-6.082 3.8984-3.8945 6.0859-9.1797 6.082-14.688v-270h166.16zm0-270h-166.16v-41.539h166.16zm0-83.078h-166.16v-311.54c-0.042969-5.5391 2.1289-10.859 6.0273-14.789 3.8984-3.9297 9.207-6.1406 14.742-6.1406 5.5352 0 10.844 2.2109 14.742 6.1406 3.8984 3.9297 6.0664 9.25 6.0273 14.789v166.15c-0.003906 5.5078 2.1836 10.793 6.0781 14.688 3.8984 3.8945 9.1797 6.082 14.691 6.082h41.539-0.003906c16.523 0.015625 32.359 6.5859 44.039 18.27 11.684 11.68 18.254 27.516 18.273 44.035z"/>
 </g>
</svg>
