<?xml version="1.0" encoding="UTF-8"?>
<svg width="1200pt" height="1200pt" version="1.1" viewBox="0 0 1200 1200" xmlns="http://www.w3.org/2000/svg">
 <g>
  <path d="m1087.5 975h-112.5v-36.562c22.352-11.137 41.961-27.082 57.418-46.695 15.457-19.613 26.379-42.406 31.98-66.742h23.102c20.098 0 38.664-10.723 48.715-28.125 10.047-17.402 10.047-38.848 0-56.25-10.051-17.402-28.617-28.125-48.715-28.125h-18.75v-18.75h18.75c4.9727 0 9.7422-1.9766 13.258-5.4922 3.5156-3.5156 5.4922-8.2852 5.4922-13.258 0-54.699-21.73-107.16-60.41-145.84-38.68-38.68-91.141-60.41-145.84-60.41s-107.16 21.73-145.84 60.41c-38.68 38.68-60.41 91.141-60.41 145.84 0 4.9727 1.9766 9.7422 5.4922 13.258 3.5156 3.5156 8.2852 5.4922 13.258 5.4922h18.75v18.75h-18.75c-20.098 0-38.664 10.723-48.715 28.125-10.047 17.402-10.047 38.848 0 56.25 10.051 17.402 28.617 28.125 48.715 28.125h23.102c5.6016 24.336 16.523 47.129 31.98 66.742 15.457 19.613 35.066 35.559 57.418 46.695v36.562h-112.5c-24.855 0.03125-48.684 9.918-66.258 27.492-17.574 17.574-27.461 41.402-27.492 66.258v93.75c0 4.9727 1.9766 9.7422 5.4922 13.258 3.5156 3.5156 8.2852 5.4922 13.258 5.4922h525c4.9727 0 9.7422-1.9766 13.258-5.4922 3.5156-3.5156 5.4922-8.2852 5.4922-13.258v-93.75c-0.03125-24.855-9.918-48.684-27.492-66.258-17.574-17.574-41.402-27.461-66.258-27.492zm0-225c6.6992 0 12.887 3.5742 16.238 9.375 3.3477 5.8008 3.3477 12.949 0 18.75-3.3516 5.8008-9.5391 9.375-16.238 9.375h-18.75v-37.5zm-56.25-8.9258c-17.457-10.52-30.023-27.543-34.93-47.324h34.93zm-93.75-84.824h-75v-37.5c0-13.398 7.1484-25.777 18.75-32.477 11.602-6.6992 25.898-6.6992 37.5 0 11.602 6.6992 18.75 19.078 18.75 32.477zm-37.5-150c41.496 0.050781 81.523 15.367 112.45 43.027 30.93 27.664 50.602 65.738 55.266 106.97h-92.719v-37.5c0-26.793-14.293-51.555-37.5-64.953-23.207-13.395-51.793-13.395-75 0-23.207 13.398-37.5 38.16-37.5 64.953v37.5h-92.719c4.6641-41.234 24.336-79.309 55.266-106.97 30.93-27.66 70.957-42.977 112.45-43.027zm-96.32 187.5c-4.9062 19.781-17.473 36.805-34.93 47.324v-47.324zm-91.18 93.75c-6.6992 0-12.887-3.5742-16.238-9.375-3.3477-5.8008-3.3477-12.949 0-18.75 3.3516-5.8008 9.5391-9.375 16.238-9.375h18.75v37.5zm56.25 0v-5.1953c18.969-6.957 35.758-18.82 48.656-34.375 12.898-15.555 21.445-34.25 24.77-54.18h115.65c3.3281 19.93 11.875 38.617 24.773 54.172 12.898 15.551 29.684 27.406 48.652 34.367v5.2109c0 46.891-25.016 90.219-65.625 113.66-40.609 23.449-90.641 23.449-131.25 0-40.609-23.445-65.625-66.773-65.625-113.66zm131.25 168.75c12.625-0.039062 25.203-1.4961 37.5-4.3516v41.852c0 13.398-7.1484 25.777-18.75 32.477-11.602 6.6992-25.898 6.6992-37.5 0-11.602-6.6992-18.75-19.078-18.75-32.477v-41.852c12.297 2.8555 24.875 4.3125 37.5 4.3516zm243.75 187.5h-487.5v-75c0-14.918 5.9258-29.227 16.477-39.773 10.547-10.551 24.855-16.477 39.773-16.477h115.16c5.4961 21.594 20.352 39.605 40.508 49.105 20.156 9.5039 43.5 9.5039 63.656 0 20.156-9.5 35.012-27.512 40.508-49.105h115.16c14.918 0 29.227 5.9258 39.773 16.477 10.551 10.547 16.477 24.855 16.477 39.773z"/>
  <path d="m487.5 937.5h-112.5v-36.562c19.078-9.5234 36.184-22.562 50.418-38.438h62.082c14.918 0 29.227-5.9258 39.773-16.477 10.551-10.547 16.477-24.855 16.477-39.773v-206.25c-0.039062-34.797-13.879-68.16-38.484-92.766s-57.969-38.445-92.766-38.484h-225c-34.797 0.039062-68.16 13.879-92.766 38.484s-38.445 57.969-38.484 92.766v206.25c0 14.918 5.9258 29.227 16.477 39.773 10.547 10.551 24.855 16.477 39.773 16.477h62.082c14.234 15.875 31.34 28.914 50.418 38.438v36.562h-112.5c-24.855 0.03125-48.684 9.918-66.258 27.492-17.574 17.574-27.461 41.402-27.492 66.258v131.25c0 4.9727 1.9766 9.7422 5.4922 13.258 3.5156 3.5156 8.2852 5.4922 13.258 5.4922h525c4.9727 0 9.7422-1.9766 13.258-5.4922 3.5156-3.5156 5.4922-8.2852 5.4922-13.258v-131.25c-0.03125-24.855-9.918-48.684-27.492-66.258-17.574-17.574-41.402-27.461-66.258-27.492zm-375-112.5c-4.9727 0-9.7422-1.9766-13.258-5.4922-3.5156-3.5156-5.4922-8.2852-5.4922-13.258v-206.25c0.03125-24.855 9.918-48.684 27.492-66.258 17.574-17.574 41.402-27.461 66.258-27.492h225c24.855 0.03125 48.684 9.918 66.258 27.492 17.574 17.574 27.461 41.402 27.492 66.258v206.25c0 4.9727-1.9766 9.7422-5.4922 13.258-3.5156 3.5156-8.2852 5.4922-13.258 5.4922h-36.562c11.688-23.273 17.785-48.957 17.812-75v-131.25c0-4.9727-1.9766-9.7422-5.4922-13.258-3.5156-3.5156-8.2852-5.4922-13.258-5.4922h-104.74l-50.758-50.758h0.003906c-3.5195-3.5117-8.2852-5.4883-13.258-5.4883s-9.7383 1.9766-13.258 5.4883l-50.754 50.758h-67.238c-4.9727 0-9.7422 1.9766-13.258 5.4922-3.5156 3.5156-5.4922 8.2852-5.4922 13.258v131.25c0.027344 26.043 6.125 51.727 17.812 75zm56.25-75v-112.5h56.25c4.9727 0 9.7422-1.9766 13.258-5.4922l42.992-42.996 42.992 42.992v0.003906c3.5156 3.5156 8.2852 5.4922 13.258 5.4922h93.75v112.5c0 46.891-25.016 90.219-65.625 113.66-40.609 23.449-90.641 23.449-131.25 0-40.609-23.445-65.625-66.773-65.625-113.66zm131.25 168.75c12.625-0.039062 25.203-1.4961 37.5-4.3516v41.852c0 13.398-7.1484 25.777-18.75 32.477-11.602 6.6992-25.898 6.6992-37.5 0-11.602-6.6992-18.75-19.078-18.75-32.477v-41.852c12.297 2.8555 24.875 4.3125 37.5 4.3516zm243.75 225h-487.5v-112.5c0-14.918 5.9258-29.227 16.477-39.773 10.547-10.551 24.855-16.477 39.773-16.477h115.16c5.4961 21.594 20.352 39.605 40.508 49.105 20.156 9.5039 43.5 9.5039 63.656 0 20.156-9.5 35.012-27.512 40.508-49.105h115.16c14.918 0 29.227 5.9258 39.773 16.477 10.551 10.547 16.477 24.855 16.477 39.773z"/>
  <path d="m300 18.75c-155.08 0-281.25 92.531-281.25 206.25s126.17 206.25 281.25 206.25c42.195 0.125 84.105-6.9492 123.92-20.926 34.66 25.73 76.668 39.637 119.83 39.676 4.668 0 9.1641-1.7383 12.617-4.8789 3.4531-3.1406 5.6094-7.4531 6.0508-12.102 0.4375-4.6445-0.86719-9.2852-3.668-13.02l-33.75-45c-3.9062-5.207-7.2617-10.809-10.012-16.707 20.078-16.055 36.41-36.305 47.855-59.324 11.445-23.023 17.727-48.266 18.406-73.969 0-113.72-126.17-206.25-281.25-206.25zm181.18 318.75c-3.0352 2.3438-5.2773 5.5586-6.4258 9.2188-1.1523 3.6562-1.1523 7.5781-0.003906 11.238 4.4492 14.238 11.297 27.609 20.25 39.543l7.1992 9.6016c-23.117-6.0898-44.621-17.168-63-32.457-3.3711-2.8047-7.6172-4.3359-12-4.332-2.3633-0.007812-4.7031 0.4375-6.8984 1.3125-38.367 14.82-79.172 22.324-120.3 22.125-134.4 0-243.75-75.711-243.75-168.75s109.35-168.75 243.75-168.75 243.75 75.711 243.75 168.75c-2.043 45.242-25.211 86.898-62.57 112.5z"/>
  <path d="m685.01 358.29c-2.7461 5.9023-6.1016 11.504-10.012 16.707l-33.75 45c-2.8008 3.7344-4.1055 8.375-3.668 13.02 0.44141 4.6484 2.5977 8.9609 6.0508 12.102 3.4531 3.1406 7.9492 4.8789 12.617 4.8789 43.164-0.039062 85.172-13.945 119.83-39.676 39.812 13.977 81.723 21.051 123.92 20.926 155.08 0 281.25-92.531 281.25-206.25s-126.17-206.25-281.25-206.25-281.25 92.531-281.25 206.25c0.67969 25.703 6.9609 50.945 18.406 73.969 11.445 23.02 27.777 43.27 47.855 59.324zm214.99-302.04c134.4 0 243.75 75.711 243.75 168.75s-109.35 168.75-243.75 168.75c-41.129 0.19922-81.934-7.3047-120.3-22.125-3.1289-1.2422-6.5391-1.6133-9.8633-1.082-3.3242 0.53125-6.4453 1.9453-9.0352 4.1016-18.379 15.289-39.883 26.367-63 32.457l7.1992-9.6016c8.9492-11.934 15.797-25.309 20.25-39.543 1.1445-3.6602 1.1406-7.5859-0.011719-11.242-1.1523-3.6562-3.3984-6.875-6.4375-9.2148-37.34-25.617-60.496-67.266-62.551-112.5 0-93.039 109.35-168.75 243.75-168.75z"/>
  <path d="m168.75 150h262.5v37.5h-262.5z"/>
  <path d="m131.25 225h337.5v37.5h-337.5z"/>
  <path d="m825 243.75c0 20.711-16.789 37.5-37.5 37.5s-37.5-16.789-37.5-37.5 16.789-37.5 37.5-37.5 37.5 16.789 37.5 37.5"/>
  <path d="m937.5 243.75c0 20.711-16.789 37.5-37.5 37.5s-37.5-16.789-37.5-37.5 16.789-37.5 37.5-37.5 37.5 16.789 37.5 37.5"/>
  <path d="m1050 243.75c0 20.711-16.789 37.5-37.5 37.5s-37.5-16.789-37.5-37.5 16.789-37.5 37.5-37.5 37.5 16.789 37.5 37.5"/>
 </g>
</svg>
