<?xml version="1.0" encoding="UTF-8"?>
<svg width="1200pt" height="1200pt" version="1.1" viewBox="0 0 1200 1200" xmlns="http://www.w3.org/2000/svg">
 <g>
  <path d="m867.35 913.16h-534.7c-10.355 0-18.75-8.3945-18.75-18.75v-231.29c0-10.355 8.3945-18.75 18.75-18.75h534.7c10.355 0 18.75 8.3945 18.75 18.75v231.29c0 10.355-8.3945 18.75-18.75 18.75zm-515.95-37.5h497.2v-193.79h-497.2z"/>
  <path d="m521.88 681.88h-128.21c-10.355 0-18.75-8.3945-18.75-18.75v-75.418c0-10.355 8.3945-18.75 18.75-18.75h128.21c10.355 0 18.75 8.3945 18.75 18.75v75.418c0 10.355-8.3945 18.75-18.75 18.75zm-109.45-37.5h90.707v-37.918h-90.707z"/>
  <path d="m806.33 681.88h-128.21c-10.355 0-18.75-8.3945-18.75-18.75v-75.418c0-10.355 8.3945-18.75 18.75-18.75h128.21c10.355 0 18.75 8.3945 18.75 18.75v75.418c0 10.355-8.3945 18.75-18.75 18.75zm-109.45-37.5h90.707v-37.918h-90.707z"/>
  <path d="m554.17 525.08c-3.1328 0-6.2383-0.78125-9.0312-2.3164-4.3555-2.3945-7.5859-6.4258-8.9727-11.199l-64.555-222.1c-2.8906-9.9453 2.8281-20.348 12.77-23.238l513.45-149.24c9.9336-2.8906 20.352 2.8281 23.234 12.77l64.559 222.1c1.3906 4.7734 0.82422 9.9062-1.5742 14.266-2.3945 4.3555-6.4219 7.5859-11.199 8.9727l-513.46 149.24c-1.7109 0.5-3.4727 0.74609-5.2266 0.74609zm-41.316-228.08 54.09 186.09 477.45-138.77-54.09-186.09z"/>
  <path d="m548.21 285.95c-3.1328 0-6.2383-0.78125-9.0312-2.3164-4.3555-2.3945-7.5859-6.4219-8.9727-11.199l-21.051-72.418c-2.8906-9.9453 2.8281-20.348 12.77-23.238l123.11-35.785c4.7695-1.3867 9.9062-0.82422 14.266 1.5742 4.3555 2.3945 7.5859 6.4258 8.9727 11.199l21.047 72.418c2.8906 9.9453-2.8281 20.348-12.77 23.238l-123.11 35.785c-1.7148 0.49609-3.4766 0.74219-5.2344 0.74219zm2.1914-78.395 10.582 36.41 87.102-25.316-10.582-36.41z"/>
  <path d="m821.36 206.55c-3.1289 0-6.2383-0.78125-9.0312-2.3164-4.3555-2.3945-7.5859-6.4258-8.9727-11.199l-21.047-72.418c-2.8867-9.9453 2.8281-20.348 12.773-23.238l123.11-35.781c4.7695-1.3906 9.9062-0.82422 14.266 1.5742 4.3555 2.3945 7.5859 6.4258 8.9727 11.199l21.047 72.418c2.8906 9.9453-2.8281 20.348-12.77 23.238l-123.11 35.777c-1.7148 0.5-3.4766 0.74609-5.2344 0.74609zm2.1914-78.398 10.582 36.41 87.102-25.316-10.582-36.41z"/>
  <path d="m1134.7 1145.5h-534.7c-10.355 0-18.75-8.3945-18.75-18.75v-231.29c0-10.355 8.3945-18.75 18.75-18.75h534.7c10.355 0 18.75 8.3945 18.75 18.75v231.29c0 10.355-8.3945 18.75-18.75 18.75zm-515.95-37.5h497.2v-193.79h-497.2z"/>
  <path d="m1073.7 914.25h-128.21c-10.355 0-18.75-8.3945-18.75-18.75v-75.418c0-10.355 8.3945-18.75 18.75-18.75h128.21c10.355 0 18.75 8.3945 18.75 18.75v75.418c0 10.355-8.3945 18.75-18.75 18.75zm-109.46-37.5h90.707v-37.918h-90.707z"/>
  <path d="m600 1145.5h-534.7c-10.355 0-18.75-8.3945-18.75-18.75v-231.29c0-10.355 8.3945-18.75 18.75-18.75h534.7c10.355 0 18.75 8.3945 18.75 18.75v231.29c0 10.355-8.3945 18.75-18.75 18.75zm-515.95-37.5h497.2v-193.79h-497.2z"/>
  <path d="m254.53 914.25h-128.21c-10.355 0-18.75-8.3945-18.75-18.75v-75.418c0-10.355 8.3945-18.75 18.75-18.75h128.21c10.355 0 18.75 8.3945 18.75 18.75v75.418c0 10.355-8.3945 18.75-18.75 18.75zm-109.46-37.5h90.707l-0.003906-37.918h-90.703z"/>
 </g>
</svg>
